<svg xmlns="http://www.w3.org/2000/svg" viewBox="0 0 900 900" width="900" height="900">
<defs><linearGradient id="g" x1="0" y1="0" x2="1" y2="1"><stop offset="0" stop-color="hsl(0 0% 24%)"/><stop offset="1" stop-color="hsl(0 0% 20%)"/></linearGradient></defs>
<rect width="900" height="900" fill="url(#g)"/><path d="M35.142857142857146 -10 C 53.142857142857146 270, 17.142857142857146 540, 41.142857142857146 910" stroke="#fff" stroke-opacity="0.045" stroke-width="30" stroke-linecap="round" fill="none"/><path d="M94.42857142857144 -10 C 112.42857142857144 270, 76.42857142857144 540, 100.42857142857144 910" stroke="#fff" stroke-opacity="0.045" stroke-width="30" stroke-linecap="round" fill="none"/><path d="M153.71428571428572 -10 C 171.71428571428572 270, 135.71428571428572 540, 159.71428571428572 910" stroke="#fff" stroke-opacity="0.045" stroke-width="30" stroke-linecap="round" fill="none"/><path d="M230.00000000000003 -10 C 248.00000000000003 270, 212.00000000000003 540, 236.00000000000003 910" stroke="#fff" stroke-opacity="0.045" stroke-width="30" stroke-linecap="round" fill="none"/><path d="M289.28571428571433 -10 C 307.28571428571433 270, 271.28571428571433 540, 295.28571428571433 910" stroke="#fff" stroke-opacity="0.045" stroke-width="30" stroke-linecap="round" fill="none"/><path d="M348.5714285714286 -10 C 366.5714285714286 270, 330.5714285714286 540, 354.5714285714286 910" stroke="#fff" stroke-opacity="0.045" stroke-width="30" stroke-linecap="round" fill="none"/><path d="M424.8571428571429 -10 C 442.8571428571429 270, 406.8571428571429 540, 430.8571428571429 910" stroke="#fff" stroke-opacity="0.045" stroke-width="30" stroke-linecap="round" fill="none"/><path d="M484.14285714285717 -10 C 502.14285714285717 270, 466.14285714285717 540, 490.14285714285717 910" stroke="#fff" stroke-opacity="0.045" stroke-width="30" stroke-linecap="round" fill="none"/><path d="M543.4285714285714 -10 C 561.4285714285714 270, 525.4285714285714 540, 549.4285714285714 910" stroke="#fff" stroke-opacity="0.045" stroke-width="30" stroke-linecap="round" fill="none"/><path d="M602.7142857142858 -10 C 620.7142857142858 270, 584.7142857142858 540, 608.7142857142858 910" stroke="#fff" stroke-opacity="0.045" stroke-width="30" stroke-linecap="round" fill="none"/><path d="M679.0000000000001 -10 C 697.0000000000001 270, 661.0000000000001 540, 685.0000000000001 910" stroke="#fff" stroke-opacity="0.045" stroke-width="30" stroke-linecap="round" fill="none"/><path d="M738.2857142857143 -10 C 756.2857142857143 270, 720.2857142857143 540, 744.2857142857143 910" stroke="#fff" stroke-opacity="0.045" stroke-width="30" stroke-linecap="round" fill="none"/><path d="M797.5714285714287 -10 C 815.5714285714287 270, 779.5714285714287 540, 803.5714285714287 910" stroke="#fff" stroke-opacity="0.045" stroke-width="30" stroke-linecap="round" fill="none"/><path d="M873.8571428571429 -10 C 891.8571428571429 270, 855.8571428571429 540, 879.8571428571429 910" stroke="#fff" stroke-opacity="0.045" stroke-width="30" stroke-linecap="round" fill="none"/>
<text x="50%" y="50%" fill="#fff" fill-opacity="0.45" font-family="Helvetica, Arial, sans-serif" font-size="34.61538461538461" letter-spacing="8.181818181818182" text-anchor="middle" dominant-baseline="middle">GALLERY PHOTO 8</text>
</svg>
